# xmcd
#
# Track frame offsets: 
#        150
#        18225
#        34275
#        44325
#        59700
#        74600
#        94875
#        115800
#        134812
#        147075
#        154650
#        174450
#        193390
#        208990
#        226462
#        245045
#        264262
#        284362
#        297525
#        301500
#        303412
#        307125
#
# Disc length: 4251 seconds
#
# Revision: 2
# Processed by: cddbd v1.4PL0 Copyright (c) Steve Scherf et al.
# Submitted via: ExactAudioCopy v0.95a3
#
DISCID=5e109916
DTITLE=Jelly-Roll Morton - The Library Of Congress Recordings - Volume
DTITLE=4 - Whinin' Boy Blues
DYEAR=1938
DGENRE=
TTITLE0=Freakish
TTITLE1=Pep
TTITLE2=Card Dealer's Song
TTITLE3=New Orleans Blues
TTITLE4=Creepy Feeling [begun]
TTITLE5=Creepy Feeling [concluded]
TTITLE6=The Crave
TTITLE7=Mamanita
TTITLE8=Can-Can
TTITLE9=If You Don't Shake
TTITLE10=Spanish Swat
TTITLE11=Ain't Misbehavin'
TTITLE12=I Hate A Man Like You
TTITLE13=Michigan Water Blues
TTITLE14=Winin' Boy Blues [no. 2 begun]
TTITLE15=Winin' Boy Blues [no. 2 concluded]
TTITLE16=Buddy Bertrand's Blues [no. 1] and Mamie's Blues
TTITLE17=Boogie Woogie Blues
TTITLE18=Albert Carroll's Tune
TTITLE19=Buddy Bertrand's Blues [no. 2]
TTITLE20=L'il Liza Jane
TTITLE21=Tricks Ain't Walkin' No More
EXTD=
EXTT0=
EXTT1=
EXTT2=
EXTT3=
EXTT4=
EXTT5=
EXTT6=
EXTT7=
EXTT8=
EXTT9=
EXTT10=
EXTT11=
EXTT12=
EXTT13=
EXTT14=
EXTT15=
EXTT16=
EXTT17=
EXTT18=
EXTT19=
EXTT20=
EXTT21=
PLAYORDER=
